<mxfile host="app.diagrams.net" modified="2023-09-14T11:40:27.186Z" agent="5.0 (Macintosh; Intel Mac OS X 10_15_7) AppleWebKit/537.36 (KHTML, like Gecko) Chrome/116.0.0.0 Safari/537.36" etag="QKKNwBHEdx1_xuPmblVB" version="21.0.8" type="github">
  <diagram name="第 1 页" id="RxmfQbQQaHwyuXwRyQ5-">
    <mxGraphModel dx="988" dy="527" grid="1" gridSize="10" guides="1" tooltips="1" connect="1" arrows="1" fold="1" page="1" pageScale="1" pageWidth="827" pageHeight="1169" math="0" shadow="0">
      <root>
        <mxCell id="0" />
        <mxCell id="1" parent="0" />
        <mxCell id="gyTANtfMsAznzYPLEQCh-14" value="" style="rounded=0;whiteSpace=wrap;html=1;" vertex="1" parent="1">
          <mxGeometry x="50" y="20" width="440" height="540" as="geometry" />
        </mxCell>
        <mxCell id="gyTANtfMsAznzYPLEQCh-3" value="" style="edgeStyle=orthogonalEdgeStyle;rounded=0;orthogonalLoop=1;jettySize=auto;html=1;" edge="1" parent="1" source="gyTANtfMsAznzYPLEQCh-1" target="gyTANtfMsAznzYPLEQCh-2">
          <mxGeometry relative="1" as="geometry" />
        </mxCell>
        <mxCell id="gyTANtfMsAznzYPLEQCh-1" value="待处理" style="rounded=0;whiteSpace=wrap;html=1;" vertex="1" parent="1">
          <mxGeometry x="90" y="60" width="120" height="60" as="geometry" />
        </mxCell>
        <mxCell id="gyTANtfMsAznzYPLEQCh-7" value="" style="edgeStyle=orthogonalEdgeStyle;rounded=0;orthogonalLoop=1;jettySize=auto;html=1;" edge="1" parent="1" source="gyTANtfMsAznzYPLEQCh-2" target="gyTANtfMsAznzYPLEQCh-6">
          <mxGeometry relative="1" as="geometry" />
        </mxCell>
        <mxCell id="gyTANtfMsAznzYPLEQCh-2" value="待处理" style="rounded=0;whiteSpace=wrap;html=1;" vertex="1" parent="1">
          <mxGeometry x="90" y="200" width="120" height="60" as="geometry" />
        </mxCell>
        <mxCell id="gyTANtfMsAznzYPLEQCh-4" value="发货方仓库-&amp;gt;发货方预出库" style="rounded=0;whiteSpace=wrap;html=1;" vertex="1" parent="1">
          <mxGeometry x="270" y="130" width="180" height="60" as="geometry" />
        </mxCell>
        <mxCell id="gyTANtfMsAznzYPLEQCh-5" value="" style="endArrow=classic;html=1;rounded=0;entryX=0;entryY=0.5;entryDx=0;entryDy=0;" edge="1" parent="1" target="gyTANtfMsAznzYPLEQCh-4">
          <mxGeometry width="50" height="50" relative="1" as="geometry">
            <mxPoint x="150" y="160" as="sourcePoint" />
            <mxPoint x="200" y="140" as="targetPoint" />
          </mxGeometry>
        </mxCell>
        <mxCell id="gyTANtfMsAznzYPLEQCh-11" value="" style="edgeStyle=orthogonalEdgeStyle;rounded=0;orthogonalLoop=1;jettySize=auto;html=1;" edge="1" parent="1" source="gyTANtfMsAznzYPLEQCh-6" target="gyTANtfMsAznzYPLEQCh-10">
          <mxGeometry relative="1" as="geometry" />
        </mxCell>
        <mxCell id="gyTANtfMsAznzYPLEQCh-6" value="待收货完成" style="rounded=0;whiteSpace=wrap;html=1;" vertex="1" parent="1">
          <mxGeometry x="90" y="340" width="120" height="60" as="geometry" />
        </mxCell>
        <mxCell id="gyTANtfMsAznzYPLEQCh-8" value="发货方预出库-&amp;gt;收货方预入库" style="rounded=0;whiteSpace=wrap;html=1;" vertex="1" parent="1">
          <mxGeometry x="270" y="270" width="180" height="60" as="geometry" />
        </mxCell>
        <mxCell id="gyTANtfMsAznzYPLEQCh-9" value="" style="endArrow=classic;html=1;rounded=0;entryX=0;entryY=0.5;entryDx=0;entryDy=0;" edge="1" parent="1">
          <mxGeometry width="50" height="50" relative="1" as="geometry">
            <mxPoint x="150" y="299.66999999999996" as="sourcePoint" />
            <mxPoint x="270" y="299.66999999999996" as="targetPoint" />
          </mxGeometry>
        </mxCell>
        <mxCell id="gyTANtfMsAznzYPLEQCh-10" value="已完成" style="rounded=0;whiteSpace=wrap;html=1;" vertex="1" parent="1">
          <mxGeometry x="90" y="480" width="120" height="60" as="geometry" />
        </mxCell>
        <mxCell id="gyTANtfMsAznzYPLEQCh-12" value="收货方预入库-&amp;gt;收货方库存" style="rounded=0;whiteSpace=wrap;html=1;" vertex="1" parent="1">
          <mxGeometry x="270" y="400" width="180" height="60" as="geometry" />
        </mxCell>
        <mxCell id="gyTANtfMsAznzYPLEQCh-13" value="" style="endArrow=classic;html=1;rounded=0;entryX=0;entryY=0.5;entryDx=0;entryDy=0;" edge="1" parent="1">
          <mxGeometry width="50" height="50" relative="1" as="geometry">
            <mxPoint x="150" y="429.66999999999996" as="sourcePoint" />
            <mxPoint x="270" y="429.66999999999996" as="targetPoint" />
          </mxGeometry>
        </mxCell>
      </root>
    </mxGraphModel>
  </diagram>
</mxfile>
